<svg xmlns="http://www.w3.org/2000/svg" viewBox="0 0 600 639.7193">
  <g id="Layer_2" data-name="Layer 2">
    <g id="Layer_1-2" data-name="Layer 1">
      <g>
        <path d="M217.4462,473.8829c-1.85-.7416-3.8084-1.498-5.8412-2.2824-17.475-6.7448-39.2223-15.14-40.3794-33.4054-.6931-10.952,2.7334-19.9475,10.4768-27.4991,19.845-19.3512,61.6237-23.141,91.3753-20.5027a183.8749,183.8749,0,0,1,34.8317,7.0033c-1.8632,2.357-3.6723,4.7563-5.4056,7.209a.9541.9541,0,0,0,1.5451,1.12q2.922-3.93,6.07-7.6784c7.8026,2.32,15.5061,4.9107,23.1065,7.4719,18.36,6.1858,35.7028,12.0288,51.432,12.7443,34.6537,1.5409,74.4071-24.121,88.7016-57.2768,3.6835-8.5409-4.891-14.6708-21.9765-26.8823-9.7688-6.9814-23.1466-16.5434-38.8255-29.61-30.959-25.797-34.2923-53.023-37.5175-79.3539-.6111-4.9822-1.1869-9.6886-1.9489-14.4081-3.8522-23.8473-13.2777-51.1963-29.1187-74.6166,21.1516-23.212,44.5115-59.9767,49.2022-96.6875.1937-1.5157.9707-9.289-2.72-13.48a7.3381,7.3381,0,0,0-5.55-2.5741c-3.6761,0-8.7608,2.0514-17.5514,7.0812-24.742,14.1581-52.3095,26.7474-84.0725,38.39.756-12.0056.8469-23.7839-.13-32.1394-.9632-8.2382-4.1381-28.0776-12.7741-34.3547A10.4406,10.4406,0,0,0,262.0252.203c-4.28.8571-8.5111,5.5319-19.0494,19.1472-1.5222,1.9639-2.929,3.7842-4.1084,5.2412l-1.0769,1.3322C223.9283,43.06,208.2177,62.4816,198.6,82.9014c-7.7043,16.3515-14.4249,40.5554,2.1111,82.9331a5.7239,5.7239,0,1,0,10.6649-4.16c-14.95-38.3141-9.1464-59.6161-2.42-73.8948,9.0291-19.1714,23.6218-37.21,37.7337-54.6552L247.768,31.79c1.2222-1.51,2.683-3.3957,4.2593-5.4331,3.1022-4.0068,9.1986-11.8826,12.1443-14.5013,2.1036,2.2489,5.843,10.8886,7.6094,25.9787,2.3867,20.4347-2.24,62.42-6.1374,72.5271a5.7234,5.7234,0,0,0,10.68,4.12c1.33-3.4492,2.6351-9.295,3.7763-16.3931,49.36,17.5616,74.8333,71.825,81.689,114.27.7285,4.5034,1.2912,9.1036,1.8874,13.974,3.3333,27.2131,7.1119,58.0575,41.5513,86.7565,10.4456,8.7044,19.83,15.837,27.8643,21.7287-5.2547,12.1952-11.8961,34.023,8.04,49.9357-.2664.2293-.5282.4635-.7974.69-11.07,5.8483-23.0442,9.8467-35.4606,10.8336a87.08,87.08,0,0,1-24.5021-1.5152c-2.03-.3553-4.0287-.89-6.0377-1.3689a46.77,46.77,0,0,1-5.7494-1.8668c-3.8028-1.4867-7.5576-3.2984-11.2821-5.1957-7.5851-3.9269-15.1027-8.1275-22.7088-12.2323a166.7326,166.7326,0,0,1,29.0181-18.4448l.0414-.0213a1.908,1.908,0,0,0-1.7845-3.3731,170.1891,170.1891,0,0,0-30.0931,20.3323c-6.395-3.4152-12.8626-6.736-19.5063-9.7307-4.297-1.95-8.6719-3.76-13.1175-5.3985.8157-.4572,1.6229-.93,2.4436-1.3769a162.5916,162.5916,0,0,1,24.0545-10.871c.0186-.0066.0517-.0184.07-.0257a1.9083,1.9083,0,1,0-1.3806-3.5581,165.8568,165.8568,0,0,0-24.1569,11.9659c-1.4724.872-2.9253,1.7739-4.3776,2.6769-2.4953-.8558-5.0079-1.6689-7.5563-2.3823a94.6381,94.6381,0,0,0-25.5305-3.7835,1.9079,1.9079,0,0,0-.0233,3.8156l.0233,0a90.7316,90.7316,0,0,1,24.4191,3.87c1.41.4091,2.8051.8728,4.202,1.33q-6.8752,4.4826-13.4677,9.3581a.9541.9541,0,0,0,1.11,1.5518q7.5614-5.1969,15.4534-9.863c5.4387,1.9227,10.7861,4.1519,16.04,6.597,5.993,2.7691,11.8495,5.8147,17.6678,8.9722q-6.3547,5.6689-12.1159,11.9441c-13.4161-4.0858-27.589-7.6217-41.9394-8.8924-33.711-2.99-77.78,1.6731-100.3765,23.7093-10.1339,9.8843-14.8143,22.1367-13.9106,36.4182,1.6209,25.5818,28.2443,35.8574,47.6831,43.3605,1.9825.7658,3.8941,1.5036,5.7,2.2284,27.9239,11.2053,41.4769,26.3606,41.434,46.3286-.0913,43.3735-66.332,61.6479-86.6316,66.2164C119.9931,607.8529,65.5893,610.426,6.2742,604.71a5.7242,5.7242,0,0,0-1.0993,11.3954q31.2543,3.0128,60.6995,3.0109c37.3554,0,72.3762-3.6388,104.6227-10.896,59.7679-13.4486,95.493-42.3674,95.5675-77.3584C266.1187,506.0213,249.7616,486.8508,217.4462,473.8829ZM281.683,86.5286q.3053-2.63.5771-5.343c34.467-12.3633,64.1888-25.7813,90.7786-40.9945a87.8523,87.8523,0,0,1,8.8987-4.5872,15.2489,15.2489,0,0,1-.1174,2.1744c-3.5382,27.69-20.94,61.9651-44.7775,88.7034C322.9278,108.71,304.6227,94.1245,281.683,86.5286Zm49.1131,290.6619c8.0658,4.4281,16.086,9.0265,24.312,13.3882,3.7838,1.9717,7.6289,3.879,11.6819,5.5093a51.7121,51.7121,0,0,0,6.2757,2.1025c2.0952.5214,4.1769,1.0963,6.3065,1.4916a92.2239,92.2239,0,0,0,25.9083,1.834,85.5053,85.5053,0,0,0,12.39-1.81c-10.6962,4.8017-21.9523,7.3942-32.4953,6.92-14.1193-.641-30.7186-6.2343-48.2943-12.1556-5.8635-1.9758-11.9683-4.0315-18.25-5.99Q324.4389,382.5422,330.7961,377.1905Z"/>
        <path d="M598.794,574.727a5.7222,5.7222,0,0,0-8.0323-1.0043c-11.5072,8.9509-23.413,13.7207-31.8552,12.7388-.7434-.0857-.8757-.2907-1.0136-.5068-1.3993-2.193-.7453-8.6509.7173-13.0723a55.6531,55.6531,0,0,1,8.3155-15.4236,5.7244,5.7244,0,0,0-6.3628-8.8409l-1.008.3279a96.4183,96.4183,0,0,1-26.4706,5.2375,5.7193,5.7193,0,0,0-4.7418,2.8842c-8.472,14.87-33.7241,30.4206-43.7258,29.3884-1.2353-.13-1.4831-.5273-1.6489-.79-1.22-1.9545-.8384-6.8138.3037-10.8644,10.3632-5.3269,18.8072-11.8108,22.9882-17.05,6.1132-7.6652,3.2141-12.5542,1.6844-14.3a11.171,11.171,0,0,0-10.1116-3.7953c-7.8274.9931-15.2895,9.1819-18.91,16.3683l-.3317.6558c-1.252,2.4762-2.8954,5.7238-4.5667,9.9514-.73.3335-1.47.66-2.2246.98-12.8394,5.4574-24.85,7.1734-34.1191,5.04,12.67-10.2644,29.0306-25.893,27.5773-37.1654-.3279-2.5432-1.83-7.1509-8.1981-9.4259-3.6723-1.3173-9.5265-1.2074-16.5806,6.7541-6.7318,7.5982-14.3523,22.5746-20.1934,38.7267q-1.3892.9839-2.8358,1.975c-9.7111,6.6349-22.1573,14.09-32.14,12.9456-.7434-.0857-.8757-.2907-1.0136-.5068-1.3993-2.193-.7453-8.6509.7173-13.0723a55.6531,55.6531,0,0,1,8.3155-15.4236,5.7244,5.7244,0,0,0-6.3628-8.8409l-1.0024.3261a96.3532,96.3532,0,0,1-26.4762,5.2393,5.72,5.72,0,0,0-4.7884,2.9662c-8.9285,16.2919-22.7628,27.8233-32.1943,26.8339-.7435-.0857-.8758-.2906-1.0136-.5068-1.4012-2.1948-.7453-8.6508.721-13.0741,1.703-5.1462,4.19-10.5085,4.2165-10.5606a5.7246,5.7246,0,0,0-9.7446-5.884c-.73.96-1.5073,1.9955-2.3253,3.0854-6.9665,9.2844-23.2677,31.0224-31.4732,26.2824-4.196-2.4315-.2888-15.2392,4.017-23.1634a5.723,5.723,0,0,0-10.0482-5.4815c-1.63,2.9848-15.4646,29.42.2925,38.55,10.924,6.3293,22.433-1.5558,32.1813-11.8854a17.8118,17.8118,0,0,0,2.5134,8.2894,12.4133,12.4133,0,0,0,9.4074,5.7275c11.19,1.2036,28.766-7.7416,41.9053-29.93a99.2491,99.2491,0,0,0,13.294-1.975,56.08,56.08,0,0,0-2.3011,5.8281c-.803,2.424-4.55,14.9205.5012,22.83a12.387,12.387,0,0,0,9.35,5.72c10.3929,1.1962,21.08-3.2513,30.9012-9.0757-4.2928,16.344-5.8225,31.667-1.8539,39.6043,3.6724,7.3448,9.4782,11.3562,16.23,11.3562a18.0559,18.0559,0,0,0,3.1414-.2813c10.6817-1.88,21.2312-13.76,22.5783-25.4216,1.1887-10.2942-1.6377-20.0108-8.42-29.0418a76.1274,76.1274,0,0,0,24.2608-4.7642c-.2012,3.8755.2851,8.1012,2.4259,11.5258a13.1145,13.1145,0,0,0,10.1544,6.1039c15.82,1.6545,42.3917-16.48,53.18-32.3974a98.5494,98.5494,0,0,0,13.4487-1.9881,56.2774,56.2774,0,0,0-2.3011,5.83c-.803,2.424-4.55,14.9205.5012,22.83a12.3868,12.3868,0,0,0,9.35,5.72c16.3272,1.88,33.5563-9.9141,40.1949-15.0752A5.724,5.724,0,0,0,598.794,574.727ZM441.61,551.4742c6.2157-11.2593,10.5551-14.3169,11.7513-14.5777a3.6235,3.6235,0,0,1,.5608.2664c.05,2.5265-4.9505,9.8843-14.8591,19.1761C439.8942,554.6659,440.7439,553.0393,441.61,551.4742Zm2.0123,61.2305c-.7658,6.6423-7.423,14.4436-13.1915,15.4609-1.1775.2049-4.3059.7565-7.1454-4.9226-2.9327-5.8635-.3-22.7758,5.29-40.5173C439.93,592.17,444.8578,602.01,443.6225,612.7047Z"/>
        <path d="M453.2553,477.96c-10.7973,14.0225-31.6633,30.946-39.7813,30.0535-.7434-.0857-.8739-.2888-1.0117-.5049-1.4012-2.1949-.7453-8.6528.7173-13.0742,1.7048-5.148,4.1941-10.5122,4.22-10.5662a5.7239,5.7239,0,0,0-9.7241-5.9082c-10.7991,14.0225-31.6577,30.946-39.7813,30.0535-.7434-.0857-.8738-.2907-1.0117-.5068-1.4012-2.1967-.7472-8.6509.7173-13.0741,1.567-4.7323,3.79-9.634,4.16-10.4386C377.8956,472.4816,385.5,458.2,389.8951,447.06a5.723,5.723,0,1,0-10.6463-4.2034c-4.1773,10.5811-11.66,24.6222-17.6707,35.904-6.8118,12.789-30.29,30.2994-39.2633,29.2523-.7434-.0857-.8738-.2907-1.0117-.5068-1.4011-2.1967-.7472-8.6509.7173-13.0741,1.5986-4.8295,3.8885-9.8489,4.1848-10.4955.0149-.03.0279-.06.0428-.0894a5.7236,5.7236,0,0,0-10.3855-4.8145c-.0093.0186-.0316.0652-.0652.14-5.012,10.7861-15.4758,21.66-25.4886,26.4762a27.75,27.75,0,0,1-7.5013,2.4687,5.7231,5.7231,0,0,0,1.8334,11.2985,39.0308,39.0308,0,0,0,10.63-3.4507,60.862,60.862,0,0,0,13.9647-9.5787,17.1808,17.1808,0,0,0,2.4166,7.2777,12.3923,12.3923,0,0,0,9.3514,5.7219,16.9772,16.9772,0,0,0,1.9172.1062c9.2979-.0011,21.5629-7.0677,31.7286-15.7352a18.9334,18.9334,0,0,0,2.5824,9.9071,12.3923,12.3923,0,0,0,9.3514,5.7219c9.8694,1.1179,22.9062-7.505,33.6551-17.0614-.1174,3.8643.449,8.01,2.5749,11.3432a12.39,12.39,0,0,0,9.35,5.7182c15.0137,1.7067,37.3871-19.1538,47.7837-31.4975a73.201,73.201,0,0,0,15.1777,1.7756c-.1248.3335-.2515.6727-.3763,1.0173-.5236,1.444-4.9729,14.3523.1881,22.6045a13.1091,13.1091,0,0,0,10.1564,6.1057c15.3509,1.634,40.6663-16.2528,51.3089-32.4012a98.919,98.919,0,0,0,13.4076-1.9843,56.5073,56.5073,0,0,0-2.2992,5.8281c-.803,2.4241-4.5536,14.915.4975,22.83a12.3923,12.3923,0,0,0,9.3514,5.7219,31.1577,31.1577,0,0,0,3.583.2012c15.2224,0,30.46-10.4936,36.6138-15.2783a5.7239,5.7239,0,1,0-7.028-9.0365c-11.509,8.949-23.4335,13.7188-31.8571,12.7406-.7434-.0857-.8738-.2907-1.0117-.5068-1.4011-2.1967-.7471-8.6509.7174-13.0741a55.5762,55.5762,0,0,1,8.3154-15.4236,5.7248,5.7248,0,0,0-6.3628-8.8409l-1.008.3279A96.4182,96.4182,0,0,1,532.85,475.733a5.725,5.725,0,0,0-4.7642,2.9234c-7.831,13.9983-31.2422,30.4783-41.7954,29.3511-1.2353-.13-1.485-.5273-1.6489-.79-1.4067-2.2508-.6876-8.3472.8682-12.6288.82-2.26,1.6471-4.2351,2.4408-5.9865,13.1393-2.3886,22.7852-8.444,25.552-14.5684a9.3344,9.3344,0,0,0-3.5624-12.1313,13.0588,13.0588,0,0,0-10.7936-1.4962c-7.9111,2.1278-15.0174,10.1564-18.5538,17.1713l-.2254.4491a61.2,61.2,0,0,1-21.05-2.0924A5.727,5.727,0,0,0,453.2553,477.96Z"/>
        <path d="M329.2981,464.3915a6.7055,6.7055,0,1,0-6.7075-6.7055A6.7125,6.7125,0,0,0,329.2981,464.3915Z"/>
        <path d="M300.0775,273.0881a80.1208,80.1208,0,0,0,26.6978,7.4425c.0671.0047.1323.0065.1975.0065a2.8617,2.8617,0,0,0,2.247-4.6337c-2.7184-3.4488-4.8014-9.4064-7.0056-15.7125-3.4907-9.98-7.1007-20.2926-14.452-24.143-.0256-.0139-.0479-.0313-.0736-.0451l-.0125-.0052c-.0126-.0063-.0238-.0146-.0359-.0209-2.806-1.4309-6.4318-1.4328-10.7786-.0018-6.8548,2.2535-15.2224,8.2065-16.7055,11.1736a5.7963,5.7963,0,0,0,.0689,4.5313C282.1739,257.4278,290.3646,268.3583,300.0775,273.0881Zm-11.5761-22.147a9.782,9.782,0,0,1,3.7515-6.5165c4.4531-2.6242,9.855-4.8221,12.76-3.3581,2.5158,1.36,4.154,3.7751,4.8611,7.1841a23.2314,23.2314,0,0,1-.0652,8.499,8.3157,8.3157,0,0,0,2.7277,3.46.954.954,0,0,1-1.0061,1.6079,3.9811,3.9811,0,0,0-2.9877-.078,31.06,31.06,0,0,1-3.5606,7.3021c-.7979-.3478-1.5981-.71-2.3988-1.1-5.4168-2.6375-10.1359-7.51-13.2465-11.7088A7.49,7.49,0,0,1,288.5014,250.9411Z"/>
      </g>
    </g>
  </g>
</svg>
